<svg version="1.0" fill="#fff" xmlns="http://www.w3.org/2000/svg" width="682.667" height="682.667" viewBox="0 0 512 512"><path d="M236 1.7c-17.5 2.6-36.3 10.1-52 20.6-9.6 6.4-27.3 24.1-33.7 33.7-9.9 14.8-16.9 31.8-19.9 48l-1.6 8.9-10.7-.6c-44.6-2.5-86.1 21.8-106.5 62.4-17.7 35.4-14.8 78.4 7.7 111.8 17.5 26.1 46.2 43.9 78.2 48.5 4.4.6 63.3 1 158.5 1s154.1-.4 158.5-1c26.3-3.8 52.5-17.6 68.8-36.3C523 253.1 521.2 187.2 479 145c-22.8-22.7-53.3-34.5-85.1-32.7l-10.7.6-1.6-8.9c-3-16.2-10-33.2-19.9-48-6.4-9.6-24.1-27.3-33.7-33.7C300.6 4 268.2-3.3 236 1.7zm43.1 33.2c17.6 4.6 31.7 12.7 44.5 25.5 18.2 18.1 26.7 38 28.2 65.6.9 14.9 1.8 17.3 7.7 21 4.2 2.6 9.5 2.5 19.8-.2 10.4-2.9 29.9-3.2 39.2-.6 21.3 5.8 37.2 17.1 48.6 34.6 8.8 13.4 12.4 25.8 12.4 43.2 0 12.9-1 18.3-5.5 30.2-6.6 17.7-26.1 37.2-43.8 43.8-15.7 5.9-2.8 5.5-169.7 5.8-113.2.2-154.9 0-160.5-.9-22.4-3.4-42.6-16.6-55.1-35.7-8.8-13.5-12.4-25.8-12.4-43.2 0-17.5 3.6-29.7 12.5-43.4 19-29.1 54.7-42.7 88-33.7 9.7 2.6 15.4 2.7 19.5.1 5.9-3.7 6.8-6.1 7.7-21 1.5-27.9 10.1-47.7 28.7-66 15.4-15.3 30.3-22.7 55.1-27.4 5.9-1.1 27.7.3 35.1 2.3zM90 369.1c-4.1 1.7-6.4 4.4-16.2 19.2-9 13.6-9.3 14.2-9.3 19.8 0 6.2 1.7 9.4 6.9 13.3 3.8 2.9 13.3 2.9 17.3 0 1.5-1.1 7.3-8.7 12.8-16.8 9.8-14.6 10-14.9 10-20.6 0-6.3-1.7-9.5-6.7-13.3-3.1-2.3-11.1-3.2-14.8-1.6zM226 369.1c-4.1 1.7-6.4 4.4-16.2 19.2-9 13.6-9.3 14.2-9.3 19.8 0 6.2 1.7 9.4 6.9 13.3 3.8 2.9 13.3 2.9 17.3 0 1.5-1.1 7.3-8.7 12.8-16.8 9.8-14.6 10-14.9 10-20.6 0-6.3-1.7-9.5-6.7-13.3-3.1-2.3-11.1-3.2-14.8-1.6zM378 369.1c-4.1 1.7-6.4 4.4-16.2 19.2-9 13.6-9.3 14.2-9.3 19.8 0 6.2 1.7 9.4 6.9 13.3 3.8 2.9 13.3 2.9 17.3 0 1.5-1.1 7.3-8.7 12.8-16.8 9.8-14.6 10-14.9 10-20.6 0-6.3-1.7-9.5-6.7-13.3-3.1-2.3-11.1-3.2-14.8-1.6zM154 401.1c-4.1 1.7-6.4 4.4-16.2 19.2-9 13.6-9.3 14.2-9.3 19.8 0 6.2 1.7 9.4 6.9 13.3 3.8 2.9 13.3 2.9 17.3 0 1.5-1.1 7.3-8.7 12.8-16.8 9.8-14.6 10-14.9 10-20.6 0-6.3-1.7-9.5-6.7-13.3-3.1-2.3-11.1-3.2-14.8-1.6zM298 401.1c-4.1 1.7-6.4 4.4-16.2 19.2-9 13.6-9.3 14.2-9.3 19.8 0 6.2 1.7 9.4 6.9 13.3 3.8 2.9 13.3 2.9 17.3 0 1.5-1.1 7.3-8.7 12.8-16.8 9.8-14.6 10-14.9 10-20.6 0-6.3-1.7-9.5-6.7-13.3-3.1-2.3-11.1-3.2-14.8-1.6zM82 457.1c-4.1 1.7-6.4 4.4-16.2 19.2-9 13.6-9.3 14.2-9.3 19.8 0 6.2 1.7 9.4 6.9 13.3 3.8 2.9 13.3 2.9 17.3 0 1.5-1.1 7.3-8.7 12.8-16.8 9.8-14.6 10-14.9 10-20.6 0-6.3-1.7-9.5-6.7-13.3-3.1-2.3-11.1-3.2-14.8-1.6zM226 457.1c-4.1 1.7-6.4 4.4-16.2 19.2-9 13.6-9.3 14.2-9.3 19.8 0 6.2 1.7 9.4 6.9 13.3 3.8 2.9 13.3 2.9 17.3 0 1.5-1.1 7.3-8.7 12.8-16.8 9.8-14.6 10-14.9 10-20.6 0-6.3-1.7-9.5-6.7-13.3-3.1-2.3-11.1-3.2-14.8-1.6zM370 457.1c-4.1 1.7-6.4 4.4-16.2 19.2-9 13.6-9.3 14.2-9.3 19.8 0 6.2 1.7 9.4 6.9 13.3 3.8 2.9 13.3 2.9 17.3 0 1.5-1.1 7.3-8.7 12.8-16.8 9.8-14.6 10-14.9 10-20.6 0-6.3-1.7-9.5-6.7-13.3-3.1-2.3-11.1-3.2-14.8-1.6z"/></svg>
